<svg xmlns="http://www.w3.org/2000/svg" width="140" height="38" viewBox="0 0 140 38"><g><g><g><path fill="#339d48" d="M.008 8.774C1.25 8.148 2.49 7.518 3.736 6.896c2.662-1.332 5.328-2.658 7.99-3.987 1.88-.938 3.763-1.871 5.636-2.822.234-.12.393-.113.623.003 2.491 1.258 4.99 2.502 7.485 3.752 2.984 1.496 5.952 3.022 8.957 4.474.815.394 1.102.836 1.098 1.765-.047 9.183-.03 18.366-.03 27.55-11.718 0-23.436-.001-35.156.006-.274.001-.34-.05-.339-.33.009-9.512.008-19.021.008-28.533M1.65 22.818v12.778c0 .212-.033.39.3.389 3.299-.012 6.6-.009 9.9-.003.218 0 .28-.064.289-.28.032-.916.088-1.831.13-2.748.053-1.082.102-2.163.149-3.246.054-1.231.095-2.465.16-3.697.032-.597.02-1.194.056-1.792.031-.546-.003-1.111-.349-1.607-1.093-1.575-1.522-3.348-1.482-5.23.026-1.205.15-2.407.23-3.611l.231-3.533c.019-.267.116-.506.422-.494.298.013.448.225.448.525 0 .686-.005 1.369.049 2.057.097 1.23-.02 2.47.082 3.705.062.75.01 1.507.012 2.262 0 .216.06.44.304.452.275.013.292-.227.308-.442.05-.647.024-1.295.06-1.944.095-1.703.115-3.41.19-5.115.016-.39-.088-.787.058-1.173.071-.186.14-.37.386-.344.275.03.411.214.41.467-.005.369.028.733.047 1.1.064 1.172.013 2.346.08 3.518.047.855-.005 1.714.03 2.569.015.366.053.733.065 1.1.004.125.045.23.177.266.128.033.224-.02.3-.124.083-.114.064-.244.07-.37.023-.648.01-1.296.05-1.946.078-1.31.094-2.626.096-3.94.001-.714.08-1.423.09-2.136.004-.301.191-.491.487-.487.313.004.35.24.377.513.058.585.013 1.175.08 1.75.126 1.107.097 2.22.231 3.323.032.262-.007.52.035.79a7.52 7.52 0 0 1 .087 1.703c-.026.367-.051.744-.113 1.117-.2 1.193-.47 2.366-1.175 3.37-.434.617-.588 1.262-.556 1.983l.22 5.042c.058 1.312.11 2.624.169 3.936.036.813.084 1.626.115 2.438.006.19.055.273.265.272 2.097-.006 4.194-.006 6.29 0 .185.001.241-.058.251-.237.034-.582.1-1.162.128-1.744.083-1.706.094-3.414-.154-5.11-.282-1.935-.715-3.845-1.11-5.762-.204-.988-.399-1.98-.489-2.981-.137-1.517.074-3.02.33-4.517.371-2.176 1.107-4.194 2.53-5.93.165-.2.326-.386.61-.295.28.091.32.327.321.59.011 4.488.029 8.977-.062 13.464-.055 2.722-.067 5.445-.095 8.169-.006.69-.062 1.387.02 2.067.077.642.064 1.287.135 1.93.033.295.085.358.363.358 3.055-.008 6.11-.009 9.163 0 .275.001.379-.05.379-.353-.01-8.48-.008-16.96-.003-25.44 0-.221-.067-.336-.271-.439A6990.719 6990.719 0 0 1 18.024 1.94c-.23-.116-.402-.113-.634.004A3922.68 3922.68 0 0 1 2.073 9.585c-.33.163-.43.336-.43.687.013 4.182.008 8.364.008 12.546"/></g><g><path fill="#fdfefd" d="M69.887 19.446c0 2.03-.001 4.059.004 6.088 0 .129-.029.165-.163.164-.673-.008-1.344-.005-2.016 0-.102 0-.147-.013-.147-.132.004-3.903.003-7.805.004-11.707 0-.015.002-.03.006-.089l.371.383 3.137 3.2c.69.706 1.382 1.412 2.07 2.123.087.09.132.087.217-.001 1.268-1.299 2.538-2.595 3.806-3.89l1.735-1.767c.006-.007.018-.006.03-.009.032.048.015.1.015.151.001 3.85 0 7.7.005 11.55 0 .15-.036.191-.19.19-.651-.01-1.302-.01-1.953-.002-.137.002-.175-.03-.174-.17.005-2.023.003-4.049.003-6.073v-.223l-.483.493c-.934.954-1.87 1.908-2.801 2.865-.07.071-.11.098-.195.01-.606-.629-1.219-1.25-1.83-1.874-.473-.485-.949-.97-1.451-1.482zm39.011.39c0-1.895.002-3.788-.002-5.682 0-.136.024-.186.177-.184.656.01 1.313.009 1.969 0 .135 0 .175.026.175.168-.007 1.47-.002 2.94-.008 4.411 0 .14.038.169.175.169 1.678-.005 3.356-.005 5.033 0 .144 0 .172-.038.172-.173-.005-1.47-.002-2.94-.006-4.41 0-.13.033-.165.164-.164.663.007 1.324.006 1.986 0 .11 0 .156.015.156.142a5537.01 5537.01 0 0 0 0 11.44c0 .125-.043.145-.154.144-.662-.005-1.324-.006-1.986.001-.129.001-.166-.031-.166-.163.005-1.428.002-2.855.006-4.284 0-.132-.023-.176-.17-.175a866.38 866.38 0 0 1-5.034 0c-.133 0-.177.023-.176.168.006 1.428.001 2.856.008 4.285 0 .138-.035.171-.173.17a89.868 89.868 0 0 0-1.985 0c-.135 0-.163-.039-.163-.167.004-1.9.002-3.799.002-5.697zm-66.615-.005c0-1.899.002-3.798-.003-5.697 0-.127.028-.165.163-.163a97.72 97.72 0 0 0 2 0c.125-.001.157.033.157.157-.005 1.469-.001 2.94-.006 4.409-.001.139.03.182.18.18a856.11 856.11 0 0 1 5 0c.149 0 .195-.026.195-.183-.007-1.465-.002-2.93-.008-4.395 0-.142.04-.17.175-.168.661.008 1.324.007 1.985 0 .112 0 .14.03.138.14-.003 3.813-.003 7.625.001 11.439 0 .114-.024.15-.145.148a91.268 91.268 0 0 0-2.002 0c-.133.002-.15-.045-.15-.16.003-1.427 0-2.856.006-4.284 0-.147-.043-.178-.185-.177-1.672.005-3.345.005-5.018-.001-.141 0-.173.037-.172.172.005 1.429 0 2.857.006 4.285 0 .128-.03.166-.164.165a97.749 97.749 0 0 0-2.001 0c-.125.001-.155-.033-.155-.155.005-1.905.003-3.809.003-5.712zm39.403-.013c0-1.888.002-3.777-.003-5.665 0-.14.03-.182.18-.182 2.583.005 5.166.005 7.75 0 .126 0 .17.023.167.16a47.7 47.7 0 0 0 .001 1.68c.003.146-.047.167-.179.166-1.8-.004-3.6 0-5.399-.007-.162 0-.201.04-.2.198.009.805.009 1.611 0 2.417 0 .156.03.209.203.208 1.408-.009 2.816-.002 4.224-.009.16 0 .189.046.187.191a70.67 70.67 0 0 0 0 1.884c.001.138-.029.184-.18.183-1.418-.007-2.837-.002-4.256-.007-.133 0-.179.021-.177.167.008.78.006 1.56 0 2.339 0 .125.035.157.16.156 1.863-.004 3.726 0 5.59-.006.147-.001.182.038.18.18-.009.565-.006 1.13 0 1.695 0 .1-.025.131-.13.131a2730.94 2730.94 0 0 0-7.99.001c-.146 0-.129-.077-.129-.167l.001-5.713zm39.908 0c0-1.893.002-3.787-.002-5.682 0-.125.023-.165.16-.165 2.593.005 5.184.005 7.775 0 .147-.001.173.043.171.175-.007.544-.009 1.088.001 1.632.002.152-.028.2-.196.2-1.797-.006-3.593-.004-5.39-.003-.232 0-.205-.026-.205.198-.001.821.002 1.643-.004 2.464-.001.126.036.154.159.154 1.32-.005 2.64-.001 3.959-.006.132-.001.166.032.165.163a78.525 78.525 0 0 0 0 1.929c0 .13-.03.165-.164.164-1.315-.005-2.629-.001-3.943-.006-.135-.001-.178.025-.177.168.009.78.007 1.56 0 2.339 0 .127.038.156.16.155 1.867-.004 3.732-.001 5.598-.005.139-.001.188.025.185.176-.01.56-.007 1.119 0 1.68 0 .11-.02.15-.145.15-2.655-.005-5.31-.005-7.966 0-.127 0-.143-.043-.143-.152.003-1.91.002-3.82.002-5.728zm10.33.016c0-1.893 0-3.787-.004-5.681 0-.135.023-.183.176-.183 2.547.006 5.092.006 7.639 0 .13 0 .167.03.165.162a58.475 58.475 0 0 0 0 1.664c.001.138-.027.183-.178.182-1.763-.006-3.527-.001-5.29-.007-.154 0-.2.03-.2.193.01.89.008 1.78.002 2.669 0 .122.03.156.157.156 1.307-.005 2.615-.001 3.922-.006.143-.001.186.032.184.18a66.588 66.588 0 0 0 0 1.882c.002.147-.026.192-.186.19-1.301-.006-2.604 0-3.906-.007-.142 0-.172.036-.17.17.004 1.377 0 2.754.006 4.13.001.14-.037.172-.175.17a84.166 84.166 0 0 0-1.985 0c-.138.002-.16-.04-.16-.166.003-1.9.002-3.799.002-5.698z"/></g><g><path fill="#339d48" d="M59.381 25.814c-.214-.077-.442-.077-.661-.119-2.396-.47-4.317-2.396-4.742-4.768-.566-3.151 1.362-6.11 4.492-6.897 3.202-.805 6.527 1.166 7.324 4.342.823 3.284-1.226 6.563-4.566 7.302-.226.05-.459.072-.688.108-.029.004-.066-.01-.08.032zm4.198-5.98c0-1.99-1.637-3.607-3.654-3.607-2.013 0-3.658 1.621-3.658 3.607-.001 1.985 1.643 3.606 3.657 3.607 2.018 0 3.654-1.614 3.655-3.606z"/></g><g><path fill="#339d48" d="M101.785 25.814c-.208-.073-.43-.076-.645-.118-2.436-.479-4.341-2.415-4.761-4.843a5.95 5.95 0 0 1 4.673-6.855c2.136-.448 4.004.13 5.584 1.62.084.079.058.117-.008.182-.504.493-1.007.987-1.504 1.488-.087.088-.128.075-.209-.004a3.576 3.576 0 0 0-2.612-1.058c-2.093.01-3.754 1.788-3.605 3.849.148 2.06 1.968 3.57 4.045 3.347a3.59 3.59 0 0 0 2.184-1.044c.079-.078.118-.077.196.001.498.499.999.995 1.506 1.486.08.08.075.119-.003.194-1.028.993-2.251 1.573-3.682 1.723-.028.003-.065-.01-.08.032z"/></g><g><path fill="#339d48" d="M69.892 19.244v.202c0 2.03-.001 4.059.003 6.088 0 .13-.028.165-.162.164-.672-.008-1.344-.005-2.017 0-.1 0-.146-.013-.146-.132.003-3.903.003-7.804.003-11.706 0-.016.002-.032.007-.09.137.141.254.263.372.383l3.135 3.2c.692.707 1.383 1.413 2.071 2.123.086.09.132.087.217-.001 1.267-1.299 2.537-2.594 3.807-3.89.577-.59 1.156-1.179 1.734-1.767.006-.006.019-.006.03-.009.032.048.015.101.015.151.001 3.85 0 7.7.005 11.55 0 .151-.035.191-.19.19-.65-.01-1.302-.01-1.953-.002-.137.002-.175-.028-.174-.17.005-2.023.003-4.048.003-6.072v-.224l-.483.493c-.934.955-1.87 1.908-2.802 2.866-.069.071-.108.097-.194.009-.606-.628-1.219-1.25-1.829-1.874l-1.452-1.482"/></g><g><path fill="#339d48" d="M108.903 19.836c0-1.894 0-3.788-.002-5.682-.001-.135.023-.186.176-.184.656.01 1.313.009 1.97.001.134-.001.175.025.174.168-.006 1.47-.001 2.94-.008 4.41 0 .14.037.17.175.17 1.677-.006 3.356-.006 5.034 0 .143 0 .172-.039.171-.173-.005-1.47 0-2.94-.006-4.41 0-.13.033-.166.165-.165.661.007 1.323.006 1.985.001.109 0 .155.015.155.141a5537.01 5537.01 0 0 0 0 11.441c0 .124-.041.144-.154.143-.661-.004-1.323-.005-1.984.001-.13.001-.168-.03-.167-.162.005-1.429.001-2.856.006-4.285.001-.132-.024-.176-.17-.175a866.04 866.04 0 0 1-5.034.001c-.133-.001-.177.022-.176.168.007 1.427.002 2.855.008 4.284 0 .138-.035.171-.173.17a89.869 89.869 0 0 0-1.984 0c-.135 0-.164-.039-.164-.166.004-1.9.003-3.8.003-5.697"/></g><g><path fill="#339d48" d="M42.283 19.83c0-1.898 0-3.797-.003-5.696 0-.129.028-.166.163-.164.666.008 1.333.007 2 .001.125-.002.157.032.157.155-.005 1.47-.001 2.94-.006 4.41-.001.138.03.182.18.181a856.11 856.11 0 0 1 5 0c.149 0 .195-.027.195-.184-.007-1.464-.002-2.93-.008-4.394 0-.143.04-.17.175-.169.661.008 1.324.007 1.985.001.112 0 .14.03.138.138-.003 3.813-.003 7.627.001 11.44 0 .114-.024.148-.145.147a105.47 105.47 0 0 0-2.002 0c-.133.002-.15-.043-.15-.158.003-1.428 0-2.856.005-4.285.001-.147-.043-.178-.184-.177-1.672.005-3.345.005-5.018 0-.141 0-.173.035-.172.172.005 1.428 0 2.856.006 4.285 0 .127-.03.164-.164.163-.667-.005-1.334-.005-2.001 0-.125.001-.155-.032-.155-.153.004-1.905.003-3.81.003-5.713"/></g><g><path fill="#339d48" d="M81.693 19.817c0-1.888.002-3.776-.003-5.665 0-.14.03-.182.18-.182 2.583.005 5.166.004 7.75.001.126-.001.17.022.167.159-.009.56-.01 1.12.001 1.679.003.148-.047.167-.18.167-1.798-.004-3.599 0-5.398-.007-.162 0-.201.04-.2.197.009.806.009 1.612 0 2.418 0 .156.03.208.203.207 1.408-.009 2.816-.002 4.224-.009.16 0 .189.046.187.192a70.596 70.596 0 0 0 0 1.884c0 .138-.029.184-.18.183-1.418-.007-2.837-.002-4.256-.007-.133 0-.18.022-.177.168.008.78.006 1.559 0 2.337 0 .125.035.157.16.156 1.863-.003 3.726 0 5.59-.005.147 0 .182.038.18.18-.009.565-.006 1.13 0 1.694 0 .101-.026.131-.131.131a2727.48 2727.48 0 0 0-7.989.001c-.146 0-.128-.076-.128-.166v-5.713"/></g><g><path fill="#339d48" d="M121.603 19.817c0-1.894 0-3.788-.003-5.681 0-.126.024-.166.162-.166 2.588.004 5.176.005 7.765 0 .147-.001.171.043.17.174a53.073 53.073 0 0 0 0 1.633c.003.152-.027.201-.195.201-1.795-.008-3.589-.005-5.384-.005-.23.001-.204-.026-.205.2-.001.82.003 1.64-.003 2.462-.001.127.036.154.158.154 1.318-.005 2.636 0 3.954-.006.133 0 .167.033.165.163a89.995 89.995 0 0 0 0 1.93c.002.13-.03.165-.164.164-1.312-.005-2.625-.001-3.938-.006-.135 0-.178.024-.176.169.008.78.007 1.558.001 2.337-.001.127.036.156.16.155 1.863-.003 3.726 0 5.59-.004.139 0 .188.026.185.176-.01.559-.007 1.12-.002 1.68.001.11-.018.15-.144.15-2.652-.005-5.303-.005-7.955 0-.127 0-.143-.043-.143-.152.003-1.91.002-3.82.002-5.728"/></g><g><path fill="#339d48" d="M131.923 19.835c0-1.894 0-3.788-.003-5.682 0-.134.023-.183.175-.183 2.547.006 5.093.006 7.64.001.13 0 .167.03.165.162a58.475 58.475 0 0 0-.001 1.663c.002.138-.027.183-.177.182-1.763-.006-3.527 0-5.29-.007-.155 0-.201.03-.2.193.01.89.008 1.78.002 2.669 0 .122.03.156.157.156 1.307-.005 2.614-.001 3.922-.006.143 0 .186.032.184.18a66.588 66.588 0 0 0 0 1.882c.002.147-.027.192-.186.19-1.302-.006-2.604 0-3.906-.007-.142 0-.172.036-.171.17.005 1.377 0 2.754.007 4.13 0 .14-.038.172-.176.17a84.166 84.166 0 0 0-1.984 0c-.138.002-.161-.04-.161-.165.004-1.9.003-3.8.003-5.698"/></g></g></g></svg>