<svg xmlns="http://www.w3.org/2000/svg" width="156" height="35" viewBox="0 0 156 35"><g><g><g><path fill="#91c11e" d="M104.204 6h-8.408c-.446 0-.796.335-.796.762v20.476c0 .427.35.762.796.762h2.23c.445 0 .796-.335.796-.762v-8.623c0-.153.159-.305.318-.305h3.503c.446 0 .797-.335.797-.761v-1.616c0-.426-.351-.761-.797-.761H99.14c-.16 0-.318-.153-.318-.305V9.473c0-.152.159-.304.318-.304h5.064c.445 0 .796-.335.796-.762V6.762c0-.427-.35-.762-.796-.762"/></g><g><path fill="#91c11e" d="M115.382 18.645l2.598 8.624c.093.365-.154.731-.556.731h-2.073c-.464 0-.866-.305-.99-.731l-2.226-8.106a.426.426 0 0 0-.403-.304h-.71c-.156 0-.31.152-.31.304v8.075a.76.76 0 0 1-.773.762h-2.166a.76.76 0 0 1-.773-.762V6.762a.76.76 0 0 1 .773-.762h5.011c4.33 0 5.196 2.834 5.196 6.581 0 3.444-.711 4.754-2.412 5.637a.338.338 0 0 0-.186.427zm-1.051-6.16c0-2.677-.495-3.438-2.166-3.438h-1.144c-.155 0-.31.152-.31.304v6.268c0 .152.155.304.31.304h1.144c1.67 0 2.166-.76 2.166-3.438z"/></g><g><path fill="#91c11e" d="M129.212 24.74h-5.142c-.158 0-.316-.153-.316-.305v-5.973c0-.152.158-.304.316-.304h3.312c.441 0 .789-.335.789-.762v-1.554c0-.427-.348-.762-.79-.762h-3.311c-.158 0-.316-.152-.316-.305V9.504c0-.152.158-.305.316-.305h4.889c.442 0 .789-.335.789-.762V6.762c0-.427-.347-.762-.789-.762h-8.17c-.442 0-.789.335-.789.762v20.476c0 .427.347.762.788.762h8.424c.441 0 .788-.335.788-.762v-1.737c0-.427-.347-.761-.788-.761"/></g><g><path fill="#91c11e" d="M137.953 15.143c-1.947-1.911-3.245-3.175-3.245-4.902 0-1.14.556-2.066 1.792-2.066 1.174 0 1.792.802 1.792 3.053v.647c0 .309.279.586.587.586h2.163c.371 0 .68-.308.68-.678v-.74c0-4.162-1.978-6.043-5.222-6.043-3.77 0-5.345 2.559-5.345 5.395 0 3.176 2.008 5.211 3.862 6.999 1.885 1.788 3.43 3.175 3.43 5.241 0 1.665-.989 2.127-1.978 2.127-1.452 0-2.039-.986-2.039-2.713v-1.264c0-.431-.34-.77-.773-.77h-1.885a.764.764 0 0 0-.772.77v1.542c0 3.299 2.101 5.673 5.5 5.673 3.244 0 5.5-2.19 5.5-5.642 0-3.052-1.761-4.964-4.047-7.215"/></g><g><path fill="#91c11e" d="M155.178 6h-2.269c-.46 0-.822.335-.822.762v8.197c0 .152-.164.304-.328.304h-3.518c-.164 0-.329-.152-.329-.304V6.762c0-.427-.361-.762-.821-.762h-2.27c-.46 0-.821.335-.821.762v20.476c0 .427.362.762.822.762h2.269c.46 0 .821-.335.821-.762v-8.44c0-.153.165-.305.33-.305h3.517c.164 0 .328.152.328.305v8.44c0 .427.362.762.822.762h2.269c.46 0 .822-.335.822-.762V6.762c0-.427-.362-.762-.822-.762"/></g><g><path fill="#91c11e" d="M90.704 9.533c2.817 1.464 3.356 6.173 2.962 9.762-.572 5.206-2.631 8.028-4.42 8.516a4.72 4.72 0 0 1-1.243.167c-.4 0-.791-.05-1.165-.15-2.52-.529-3.505-3.04-3.981-5.634v-.003c-2.207 5.793-4.945 6.925-7.023 4.825-.593-.507-1.114-1.21-1.54-2.094l-.033-.066-.047.056a10.01 10.01 0 0 1-2.346 2.042l-.148.087a7.063 7.063 0 0 1-.762.396l-.03.013a6.31 6.31 0 0 1-1.772.493 6.33 6.33 0 0 1-.59.035.735.735 0 0 1-.067.003c-1.887 0-3.495-1.39-4.411-3.816l-.05-.136-.053.061c-.296.342-.79.867-1.456 1.427-1.887 1.624-3.916 2.448-6.029 2.448-1.56 0-2.946-.592-4.01-1.712-1.586-1.672-2.356-4.464-2.165-7.864l.001-.03-.027-.014a20.16 20.16 0 0 0-2.316-.979l-.062-.022-.002.066c-.054 4.771.062 8.796.31 10.765a.324.324 0 0 1-.08.258.36.36 0 0 1-.27.117h-.425c-.91 0-1.779-.054-2.4-.694-.602-.62-.859-1.7-.785-3.303.095-1.975.166-5.126.217-7.426l.015-.626-.042-.006a12.48 12.48 0 0 0-.606-.068l-.184-.013a13.042 13.042 0 0 0-.22-.013l-.074-.002a27.25 27.25 0 0 0-1.25-.03c-.653 0-1.29.025-1.893.075-.386.035-.787.079-1.225.136l-.04.005v.04c-.025.97-.038 1.847-.038 2.61-.07 3.55-.185 12.152.245 15.41a.306.306 0 0 1-.076.245.338.338 0 0 1-.253.11l-.471-.001c-.762 0-1.805 0-2.506-.722-.627-.646-.894-1.772-.816-3.445.008-.368.197-9.083.294-11.86.017-.506.033-1.032.046-1.57l.001-.067-.064.021c-.454.15-.828.304-1.19.454-.248.102-.472.195-.71.284a8.188 8.188 0 0 0-.425.16l-.16.064c-.07.028-.14.054-.21.08-.117.044-.211.08-.299.118-.276.121-1.11.477-1.238.522a.51.51 0 0 1-.518-.103 2.214 2.214 0 0 1-.527-.865c-.254-.775-.21-1.834.746-2.271.567-.26 1.014-.449 1.33-.562a24.844 24.844 0 0 1 3.278-.926l.037-.008v-.038c.039-4.166-.035-8.341-.17-9.711a.355.355 0 0 1 .322-.38 6.27 6.27 0 0 1 .718-.042c.763 0 1.812.144 2.475.827.443.458.649 1.092.61 1.882-.002.034-.207 3.439-.345 7.055l-.002.05.35-.003c.232 0 .467.003.705.012.889.03 1.863.12 2.896.269l.128.013c.444.055.886.13 1.355.227l.057.012v-.057c.108-6.265.025-11.987-.2-13.915a.318.318 0 0 1 .285-.35c.16-.02.414-.044.717-.044.733 0 1.74.138 2.377.795.426.44.623 1.048.586 1.807-.045 1.732-.099 3.483-.152 5.217-.077 2.49-.156 5.041-.203 7.447l-.003.134.03.012a25.88 25.88 0 0 1 2.55 1.173l.057.03.012-.062c.499-2.42 1.346-4.276 2.519-5.515 1.292-1.366 2.662-1.652 3.584-1.652 2.002 0 4.157 1.471 4.157 4.702 0 1.403-.49 2.775-1.343 3.764-.995 1.154-2.42 1.763-4.12 1.763-.462 0-.933-.05-1.443-.153l-.057-.012v.059c.026 2.43.55 4.28 1.476 5.208.539.54 1.21.814 1.995.814.068 0 .137-.004.206-.008.504-.036 1.545-.21 2.847-.972 1.03-.617 2.032-1.48 2.975-2.566l.014-.016-.003-.022c-1.353-8.98-.502-16.753 2.167-19.803.724-.827 1.535-1.247 2.41-1.247.035 0 .069 0 .103.002.726.027 1.373.408 1.869 1.1 1.404 1.956 1.385 5.91-.05 10.578l-.066.242c-.046.158-1.125 3.855-3.25 7.495l-.051.1.002.014c.578 3.31 1.55 5 2.89 5.024h.033c.316 0 .669-.089 1.045-.265l.139-.065.013.017.103-.066-.004-.008.157-.094c.825-.47 1.713-1.266 2.57-2.3l.035-.04-.004-.022c-.06-.335-.11-.667-.164-1-.46-1.978-.703-4.336-.643-6.954h.008c-.03-1.918.064-3.751.302-5.45.471-3.378 1.438-6.07 2.722-7.582.652-.768 1.358-1.174 2.041-1.174.028 0 .055 0 .083.002 1.43.068 2.994 1.41 3.084 4.978v.07a22.867 22.867 0 0 1-.123 2.226c-.45 4.44-2.013 9.52-4.092 13.348.417 2.151 1.079 3.627 1.948 3.638 1.028.012 3.087-3.727 3.893-7.559.619-3.952 1.844-6.568 3.857-7.687.742-.412 1.445-.612 2.15-.612.689 0 1.383.186 2.122.57zm-36.828 8.462c.171.022.348.034.524.034.842 0 2.01-.25 2.784-1.444.975-1.5 1-3.664.057-5.03-.134-.195-.356-.427-.65-.427-.84 0-2.003 1.79-2.756 6.814l-.007.046zm12.368-.63s1.857-2.786 2.784-9.24c.335-2.339 0-3.564-.324-3.918-.089-.098-.158-.098-.18-.098-.09 0-.2.064-.32.186-1.098 1.113-2.175 5.675-1.96 13.07zm10.069.447c.223-.442 1.307-2.667 1.9-5.313.493-2.203.762-4.398.762-6.53l-.004-.19c-.024-1.573-.337-2.143-.543-2.143-.068 0-.16.055-.257.155-.839.861-1.942 4.561-1.95 11.408.001.886.033 1.766.092 2.613zm13.885-5.56c-.112-.22-.517-.937-1.017-.987a1.426 1.426 0 0 0-.148-.007c-.328 0-1.163.117-1.807 1.202-1.912 3.218-1.893 11.056.03 13.104.128.135.294.201.51.201.232 0 .465-.084.584-.161.27-.178.521-.473.768-.905 1.698-2.904 2.543-9.589 1.08-12.448z"/></g><g><path fill="#91c11e" d="M24.23 7.878c.001.042.307.313.453.56.147.245.288.464.327.712.027.167-.015.22-.092.22-.437 0-2.544-3.166-6.726-4.293-2.347-.633-5.614-.877-8.306.019-2.317.77-4.363 2.213-5.94 4.042-1.778 2.06-2.922 4.53-3.148 7.235C.706 17.486.794 18.63.592 19.73c-.051.279-.148.54-.246.802-.05.13-.454 1.288.344 2.867.756 1.496 3.08 1.725 3.296 1.052.198-.618.51-.756.761-.756.347 0 .543.33.72.41 11.882 5.388 20.822-7.817 20.822-7.817.157-.893.233-1.8.247-2.705.012-.83-.039-1.633.076-2.458.106-.77.14-1.505-.245-2.213-.274-.502-.73-.765-1.259-.936-.133-.043-.883-.31-.878-.098z"/></g><g><path fill="#659a41" d="M4.751 23.698c-.25 0-.563.138-.76.755-.217.673-2.541.444-3.297-1.052-.798-1.579-.393-2.736-.332-2.892-.027.067-.043.109-.058.15.019-.05.036-.1.058-.149-.022.05-.04.1-.059.15a5.821 5.821 0 0 0-.144.438c-.022.08-.041.16-.058.24l-.016.077a4.393 4.393 0 0 0 0 .001 3.882 3.882 0 0 0-.022 1.5c.264 1.362 1.282 2.064 2.566 2.431.839.24 1.648.45 2.415.875.686.38 1.355.791 2.08 1.096 3.132 1.314 6.796 1.217 9.956.058 3.236-1.185 6-3.453 7.634-6.46.784-1.444 1.298-3.015 1.58-4.626 0 0-8.941 13.205-20.822 7.818-.177-.08-.374-.41-.72-.41z"/></g><g><path fill="#fffffe" d="M9.806 9.999c-.136.055-1.189-1.584-.657-1.905 3.513-2.121 8.918-.81 11.543.988.206.14.296.22.297.257.312.576-5.94-1.455-11.183.66"/></g></g></g></svg>