<svg xmlns="http://www.w3.org/2000/svg" width="166" height="35" viewBox="0 0 166 35"><g><g><g><path fill="#ffab22" d="M35.337 16.972c0 1.686-1.33 3.057-2.976 3.057s-2.975-1.371-2.975-3.057V2.85H26.41v14.122c0 3.359 2.659 6.092 5.951 6.092 3.293 0 5.952-2.733 5.952-6.092V2.85h-2.976v14.122"/></g><g><path fill="#ffab22" d="M95.485 11.066v-2.32c0-1.688 1.33-3.062 2.979-3.062 1.648 0 2.978 1.374 2.978 3.063v2.319zM92.513 8.74v2.315H89.75v3.024h2.763v8.426h2.976V14.08h5.951v8.426h2.976V8.741c0-3.359-2.66-6.091-5.952-6.091s-5.95 2.732-5.95 6.091z"/></g><g><path fill="#ffad22" d="M56.033.18c-2.263 0-4.326 1.869-4.326 4.17v11.12l-5.68-12.626H42.78v19.66h2.976V10.38l6.407 12.125h2.52V4.35c0-.627.728-1.135 1.346-1.135.617 0 1.346.494 1.346 1.142h2.985c0-2.16-2.063-4.176-4.327-4.176"/></g><g><path fill="#ffad22" d="M82.086 12.163A5.743 5.743 0 0 0 83.46 8.42c0-3.056-2.426-5.57-5.407-5.57H71.04v19.66h3.188V5.875h3.825c1.335 0 2.422 1.188 2.422 2.57 0 1.383-1.11 2.615-2.422 2.615h-2.337v3.025h2.337c.493 0 .984.067 1.444.245.112.043.222.078.332.123 3.394 1.392 5.586 4.694 5.586 8.414 0 5.003-4.003 9.106-8.925 9.106-4.92 0-8.925-4.061-8.925-9.03H64.58c0 6.481 5.343 12.061 11.91 12.061 6.568 0 11.91-5.453 11.91-12.128 0-4.535-2.441-8.625-6.314-10.713"/></g><g><path fill="#ffab22" d="M161.256 2.85h-8.376v2.809h4.889V22.51h2.975V5.66h5.101V2.85h-4.589"/></g><g><path fill="#ffac22" d="M139.06 22.51h10.415v-2.808h-7.44v-5.833h5.314v-2.81h-5.313v-5.4h7.439V2.85H139.06v19.66"/></g><g><path fill="#ffac22" d="M21.17 15.51c-.801-.954-1.762-1.718-2.784-2.398-.71-.471-1.45-.902-2.186-1.325-1.434-.826-3.81-2.052-3.5-4.11.208-1.389 1.706-2.359 2.993-2.214 1.514.17 2.924 1.623 3.41 3.057l2.822-.99c-.9-2.656-3.423-4.8-5.998-5.098-2.857-.33-5.745 1.907-6.179 4.786-.847 5.626 6 6.814 8.952 10.033 1.315 1.434 2.061 2.567 2.252 4.521a9.21 9.21 0 0 1-2.001 6.715 8.918 8.918 0 0 1-6.086 3.31 8.875 8.875 0 0 1-6.606-2.033c-1.862-1.553-3.014-3.661-3.251-6.098 0 0-.07-.297-.09-.73H.042s-.087.342-.01.97a12.148 12.148 0 0 0 4.334 8.219 11.783 11.783 0 0 0 8.619 2.716c.057-.005.116-.014.174-.02 3.19-.32 6.067-1.887 8.1-4.408a12.261 12.261 0 0 0 2.664-8.938c-.242-2.48-1.161-4.071-2.753-5.965"/></g><g><path fill="#ffab22" d="M128.963 11.695l6.657-8.635h-3.637l-5.037 6.516V3.06h-2.976v19.66h2.976v-8.524l.054.005 5.526 8.52h3.554l-7.117-11.026"/></g><g><path fill="#ffab22" d="M116.166 12.182c-.619-.398-1.232-.806-1.856-1.196-.922-.577-2.026-1.124-2.481-2.203-.412-.975.201-2.239 1.056-2.682 1.794-.93 3.454 1.006 4.127 2.503l.013.03 2.627-1.298-.013-.028c-1.005-2.259-3.17-4.538-5.74-4.538-.112 0-.225.004-.336.013-2.595.193-4.505 2.167-4.75 4.913-.182 2.03.73 3.83 2.504 4.938a5866.49 5866.49 0 0 0 3.348 2.162c.873.555 1.873 1.307 2.105 2.4.232 1.1-.71 2.284-1.724 2.603-1.075.338-2.19-.116-2.98-.877a6.69 6.69 0 0 1-1.215-1.572l-.016-.028-2.535 1.484.014.027c1.362 2.583 3.598 4.125 5.982 4.125.58 0 1.135-.092 1.651-.274 1.8-.634 3.685-2.524 3.806-4.907.162-3.211-2.66-5.005-3.587-5.595"/></g></g></g></svg>