<svg xmlns="http://www.w3.org/2000/svg" width="50" height="49" viewBox="0 0 50 49"><defs><clipPath id="31mja"><path d="M49.698 2.4v42.9H33.38V2.4z"/></clipPath><clipPath id="31mjb"><path d="M28.266 48.787H9.06V.08h19.206z"/></clipPath><clipPath id="31mjc"><path d="M0 46.325V5.63h16.318v40.695z"/></clipPath></defs><g><g><g><g/><g clip-path="url(#31mja)"><path fill="#ff6a56" d="M35.438 2.4c-.834 3.559-2.058 9.103-2.058 10.968 0 3.63 1.473 7.193 3.844 9.3 2.968 2.638 4.887 6.76 4.887 10.5 0 3.335-1.693 8.5-4.44 12.131 7.208-4.263 12.027-12.012 12.027-20.863 0-9.738-5.832-18.14-14.26-22.036"/></g></g><g><g/><g clip-path="url(#31mjb)"><path fill="#ff6a56" d="M19.95 33.165c0-3.831 1.775-7.972 4.521-10.549 2.27-2.13 3.795-5.847 3.795-9.25 0-2.359-1.959-10.604-2.608-13.272a25.662 25.662 0 0 0-2.55.046l1.15 13.392-1.472.121L21.64.282c-.76.095-1.507.226-2.243.387v12.924h-1.477V1.04c-.81.23-1.603.5-2.377.806l-1.014 11.807-1.471-.121.946-11.016a24.958 24.958 0 0 0-3.07 1.737C10.05 7.65 9.06 11.806 9.06 13.366c0 3.348 1.72 7.041 4.38 9.407 2.684 2.387 4.35 6.37 4.35 10.392 0 2.71-2.24 12.711-2.477 13.764a25.214 25.214 0 0 0 9.534 1.858c.932 0 1.853-.052 2.759-.15-4.758-2.679-7.655-10.827-7.655-15.472"/></g></g><g><g/><g clip-path="url(#31mjc)"><path fill="#ff6a56" d="M12.451 23.85c-2.955-2.628-4.864-6.741-4.864-10.479 0-1.43.715-4.68 1.477-7.741C3.53 10.097 0 16.864 0 24.439c0 9.614 5.686 17.926 13.941 21.886.43-1.926 2.377-10.79 2.377-13.154 0-3.628-1.482-7.2-3.867-9.32"/></g></g><g><path fill="#ff6a56" d="M36.233 23.738c2.675 2.377 4.403 6.078 4.403 9.428 0 4.613-3.095 11.704-7.096 14.09-.874.319-1.77.591-2.687.814h-.028c-5.095 0-9.395-9.154-9.395-14.904 0-3.403 1.634-7.222 4.065-9.504 2.582-2.423 4.25-6.464 4.25-10.296 0-2.419-1.798-10.1-2.543-13.176 2.402.221 4.705.777 6.86 1.62-.848 3.597-2.157 9.492-2.157 11.556 0 4.025 1.658 8 4.328 10.372zm-6.706 19.154c-4.1-4.695-3.809-11.387-2.502-13.658l-1.29-.71c-.892 1.55-1.259 4.168-.96 6.83.256 2.266 1.093 5.575 3.627 8.478z"/></g></g></g></svg>