<svg xmlns="http://www.w3.org/2000/svg" width="11" height="11" viewBox="0 0 11 11"><g><g clip-path="url(#clip-B85FDAC5-7F2D-BE08-1574-64413501DA3B)"><path fill="#ff6a56" d="M.058 6.522c.093.165.657.848 1.394 1.797.88 1.134 1.872 2.412 1.988 2.557.213.266.37.082.69-.613.44-.964 1.351-3.077 2.631-5.004 1.28-1.928 3.2-4.056 3.656-4.454.458-.4.67-.665.366-.798-.305-.133-2.684 1.703-4.072 3.343C5.22 5.112 3.605 7.99 3.204 8.056c-.32.055-1.872-1.215-2.312-1.513-.51-.346-1.077-.452-.834-.021"/></g></g></svg>